<?xml version="1.0" standalone="no"?>
<!DOCTYPE svg PUBLIC "-//W3C//DTD SVG 20010904//EN"
 "http://www.w3.org/TR/2001/REC-SVG-20010904/DTD/svg10.dtd">
<svg version="1.0" xmlns="http://www.w3.org/2000/svg"
 width="626.000000pt" height="626.000000pt" viewBox="0 0 626.000000 626.000000"
 preserveAspectRatio="xMidYMid meet">

<g transform="translate(0.000000,626.000000) scale(0.100000,-0.100000)"
fill="#000000" stroke="none">
<path d="M1856 5559 c-21 -11 -47 -18 -58 -16 -15 4 -17 3 -8 -8 15 -18 -10
-26 -64 -19 -38 6 -45 4 -50 -13 -4 -11 -24 -36 -45 -56 -50 -46 -50 -81 0
-81 27 -1 36 -7 47 -28 12 -26 43 -36 85 -29 14 2 19 -29 8 -43 -10 -12 -7
-17 16 -28 16 -7 29 -23 31 -35 4 -28 -14 -63 -33 -63 -8 0 -26 -11 -40 -24
-21 -20 -25 -32 -23 -63 2 -21 7 -43 10 -48 3 -6 6 -28 7 -50 6 -129 0 -114
70 -152 58 -30 65 -32 81 -18 25 22 29 19 23 -20 -5 -34 -5 -35 26 -35 17 0
43 -7 56 -16 20 -13 28 -14 51 -2 38 18 52 43 37 67 -13 21 -8 31 19 31 10 0
18 5 18 10 0 6 5 10 11 10 7 0 17 6 23 14 6 7 30 16 52 20 35 5 42 3 47 -13 7
-28 74 -58 98 -43 28 18 36 15 56 -18 17 -30 22 -31 71 -13 6 3 12 -2 12 -11
0 -18 25 -22 35 -6 11 18 22 10 29 -20 6 -32 26 -39 46 -15 7 8 18 15 24 15 6
0 17 4 25 9 12 8 12 13 -2 35 -9 14 -17 34 -17 46 0 13 -7 20 -19 20 -10 0
-27 12 -36 27 -14 21 -15 30 -6 46 10 15 10 26 0 49 -14 35 -1 50 41 46 40 -4
53 10 45 48 -5 30 -3 34 15 34 11 0 20 6 20 14 0 8 9 17 19 21 20 6 31 30 51
108 12 45 12 48 -13 71 -14 13 -38 23 -57 24 -18 0 -41 9 -52 19 -19 17 -20
17 -30 -1 -7 -13 -17 -16 -36 -11 -28 7 -76 -9 -107 -35 -23 -20 -78 -40 -109
-40 -12 0 -25 9 -31 23 -7 15 -24 25 -53 32 -36 8 -44 14 -49 37 -4 21 -24 40
-82 78 -42 28 -89 68 -104 88 -23 30 -35 37 -65 38 -20 1 -46 4 -57 7 -12 4
-36 -2 -59 -14z"/>
<path d="M2148 4816 c-39 -28 -43 -35 -43 -71 1 -27 -5 -44 -17 -53 -23 -17
-23 -39 1 -51 11 -6 27 -35 36 -66 18 -55 28 -66 39 -42 5 10 7 10 12 0 3 -7
12 -13 19 -13 14 0 25 -22 25 -51 0 -10 6 -19 13 -19 19 0 64 -43 68 -65 3
-15 13 -20 41 -22 l36 -2 0 42 c-1 23 4 52 10 63 21 40 129 52 172 20 8 -6 5
3 -7 19 -15 22 -21 45 -20 78 1 35 -5 53 -21 72 -12 14 -22 34 -22 45 0 11 -6
19 -12 18 -7 -2 -12 5 -11 15 1 13 -4 17 -15 12 -30 -12 -35 -10 -48 13 -20
39 -29 44 -57 31 -23 -11 -32 -9 -69 17 -67 45 -80 46 -130 10z"/>
<path d="M2056 4695 c-14 -13 -26 -19 -26 -12 -1 7 -8 0 -16 -15 -8 -16 -22
-29 -32 -30 -9 0 -22 -2 -29 -2 -6 -1 -23 -12 -38 -24 -20 -17 -24 -28 -19
-45 9 -27 9 -47 -1 -69 -5 -13 -3 -18 9 -18 9 0 16 -1 16 -3 0 -2 -28 -32 -63
-68 -59 -60 -63 -67 -59 -102 l4 -39 67 3 c36 2 72 0 79 -5 7 -4 16 -5 19 -2
10 9 35 -33 28 -47 -4 -6 2 -3 12 8 18 20 67 27 88 13 19 -12 38 9 39 41 1 20
5 30 13 27 7 -3 15 -1 19 5 4 6 12 5 22 -3 9 -7 13 -8 9 -2 -3 6 6 24 22 40
28 28 28 29 9 42 -14 10 -16 17 -8 27 7 9 6 16 -5 25 -8 7 -15 20 -15 30 0 24
-22 40 -46 34 -16 -4 -24 7 -45 58 -16 37 -36 67 -48 73 -25 12 -20 40 13 67
11 9 18 17 15 18 -3 0 -18 -11 -33 -25z"/>
<path d="M2584 4516 c-7 -8 -8 -19 -3 -29 11 -19 -6 -33 -24 -19 -24 19 -96
23 -127 7 -30 -15 -35 -31 -31 -87 1 -14 -3 -29 -10 -34 -8 -5 -5 -12 10 -23
22 -17 22 -18 4 -49 -18 -32 -18 -33 6 -51 22 -17 26 -17 53 -2 27 15 29 15
51 -11 12 -14 32 -29 45 -33 18 -5 21 -10 12 -20 -12 -15 -6 -35 11 -35 6 0
25 -11 43 -25 18 -14 43 -25 55 -25 12 0 31 -4 41 -10 15 -8 19 -5 24 16 4 15
14 33 22 41 8 8 12 19 8 24 -11 18 22 85 61 121 39 36 39 37 21 57 -11 12 -25
21 -32 21 -26 0 -64 24 -64 39 0 18 -63 57 -77 48 -12 -8 -56 31 -74 65 -11
20 -17 23 -25 14z"/>
<path d="M2255 4394 c4 -16 8 -35 11 -42 2 -7 -8 -17 -21 -22 -16 -6 -25 -17
-25 -30 0 -16 -5 -21 -22 -19 -29 4 -49 -8 -42 -26 8 -19 -23 -32 -79 -33 -37
0 -51 -5 -66 -23 l-18 -23 -12 22 c-6 12 -8 22 -4 22 4 0 -6 9 -23 20 -44 28
-64 19 -54 -25 4 -19 5 -36 2 -39 -3 -4 6 -6 21 -6 14 0 29 -5 32 -11 4 -5 17
-9 28 -8 40 3 47 -1 47 -26 0 -14 3 -25 8 -25 4 0 7 -14 8 -31 1 -23 13 -41
49 -75 38 -34 46 -47 37 -56 -7 -7 -12 -19 -11 -27 0 -9 5 -5 11 9 6 14 10 29
9 34 -2 11 52 -3 60 -15 3 -5 14 0 24 11 23 25 45 10 45 -31 0 -26 3 -29 25
-25 39 7 45 15 40 52 -5 45 -15 60 -26 43 -6 -11 -11 -11 -21 -1 -6 6 -20 12
-31 12 -16 0 -18 5 -12 33 4 17 10 33 14 35 24 10 27 21 21 74 -8 71 7 124 45
163 l29 28 -34 12 c-19 7 -35 19 -35 27 0 8 -8 23 -18 33 -17 17 -18 16 -12
-11z"/>
<path d="M2360 4321 c0 -4 -11 -20 -25 -34 -14 -14 -30 -39 -35 -56 -10 -35 6
-174 21 -179 5 -2 9 -10 9 -18 0 -7 9 -29 20 -48 10 -20 15 -38 11 -41 -5 -3
-7 -14 -4 -24 3 -13 -2 -23 -15 -30 -25 -14 -19 -47 15 -79 13 -13 22 -29 20
-35 -6 -20 23 -40 56 -39 18 0 42 -6 55 -14 12 -8 28 -14 35 -12 27 5 57 -15
73 -47 14 -31 14 -36 -5 -74 -12 -22 -21 -47 -21 -56 0 -9 -4 -13 -10 -10 -6
3 -7 -1 -4 -9 3 -9 10 -16 15 -16 5 0 9 -10 9 -23 0 -23 17 -47 32 -47 4 0 7
5 5 11 -3 17 19 22 34 7 16 -15 59 -23 59 -11 0 8 52 43 63 43 3 0 14 -15 26
-32 11 -18 21 -28 21 -23 0 6 15 10 33 10 25 0 31 -4 29 -18 -4 -21 26 -23 42
-3 18 22 65 29 72 11 4 -8 15 -15 25 -15 10 0 19 -6 19 -14 0 -8 10 -18 23
-22 12 -4 25 -11 29 -17 3 -6 24 -11 45 -11 l38 -1 1 -50 c1 -69 2 -72 20 -79
23 -9 64 37 64 73 0 16 5 31 12 33 8 3 7 11 -5 28 -9 14 -17 39 -17 57 0 27 6
35 33 49 17 9 45 28 60 43 16 14 36 26 45 27 57 3 58 4 27 21 -32 17 -65 50
-65 65 0 4 8 8 18 9 13 0 12 3 -5 11 -13 6 -23 16 -23 22 0 17 37 36 57 29 11
-4 8 3 -9 18 -16 14 -28 30 -28 37 0 7 -5 12 -10 12 -6 0 -10 7 -8 16 2 9 -9
26 -24 37 -26 20 -28 20 -47 3 -11 -10 -22 -13 -25 -8 -3 6 -24 13 -45 17 -28
5 -41 12 -44 27 -4 13 -11 19 -20 15 -8 -3 -31 5 -50 19 -20 13 -38 20 -42 14
-5 -9 -77 26 -83 42 -2 4 -9 5 -16 2 -8 -3 -16 4 -20 18 -6 23 -71 61 -108 63
-10 1 -26 10 -37 19 -11 10 -24 15 -30 12 -16 -10 -103 16 -137 41 -17 13 -34
23 -38 23 -14 0 -48 39 -42 49 6 10 -38 61 -53 61 -5 0 -20 -9 -35 -21 -23
-18 -27 -18 -32 -5 -3 9 -12 16 -19 16 -22 0 -28 49 -9 77 13 21 14 27 3 34
-18 11 -29 11 -29 0z"/>
<path d="M1738 4269 c-19 -7 -29 -20 -33 -42 -14 -65 -56 -127 -107 -155 -31
-17 -51 -37 -58 -55 -5 -16 -21 -42 -35 -59 -14 -16 -25 -36 -25 -44 0 -7 -12
-16 -27 -19 -16 -3 -46 -10 -68 -16 -89 -23 -94 -23 -104 4 -5 14 -14 28 -19
31 -14 8 -59 -30 -68 -57 -4 -12 -24 -40 -45 -62 -60 -63 -48 -108 31 -117 24
-3 25 -6 25 -64 0 -70 15 -96 54 -92 22 3 26 -1 29 -27 2 -16 12 -41 23 -56
10 -15 19 -32 19 -38 0 -7 7 -23 16 -37 15 -22 21 -24 60 -18 53 8 157 -4 149
-17 -4 -5 3 -9 14 -9 11 0 23 -4 26 -10 3 -5 15 -10 26 -10 10 0 19 5 19 10 0
15 19 12 37 -5 12 -12 12 -19 3 -30 -16 -19 -3 -40 15 -25 10 8 15 7 19 -8 4
-11 4 -26 1 -34 -4 -9 4 -19 20 -28 14 -7 25 -19 25 -26 0 -7 9 -16 20 -19 11
-4 34 -18 51 -32 25 -21 34 -24 52 -15 12 6 16 11 10 11 -23 2 -13 29 18 52
20 14 29 28 26 39 -2 9 -1 24 4 32 5 10 2 22 -11 36 -11 12 -17 28 -14 36 3 9
2 16 -4 16 -7 0 -7 11 0 33 6 17 13 38 15 46 3 10 6 11 18 1 12 -10 16 -9 21
4 3 9 16 16 29 16 24 0 38 -21 29 -43 -3 -10 5 -12 30 -9 31 4 37 0 48 -23 10
-23 10 -29 -2 -39 -18 -13 -22 -46 -7 -46 7 0 7 -4 -1 -12 -7 -7 -12 -16 -12
-21 0 -6 11 2 25 17 14 15 25 34 25 42 0 7 5 14 10 14 6 0 10 -4 10 -9 0 -5
18 -8 40 -6 22 3 40 0 40 -5 0 -6 4 -10 9 -10 6 0 6 12 1 30 -9 30 1 47 20 35
6 -3 10 -2 10 4 0 6 -8 15 -19 20 -30 17 -16 60 23 69 17 3 34 5 39 4 4 -1 7
8 7 19 0 16 -3 19 -12 11 -17 -13 -82 -9 -101 6 -31 26 -26 102 6 102 7 0 23
12 37 26 13 14 33 30 45 35 52 25 137 81 130 87 -12 12 -41 10 -62 -4 -29 -18
-33 -18 -33 6 0 11 5 20 11 20 6 0 8 7 5 17 -4 9 -1 20 6 24 9 6 5 15 -15 35
-15 15 -27 35 -27 45 0 21 -20 25 -37 8 -20 -20 -31 0 -26 48 l5 48 -27 -28
c-15 -16 -30 -25 -34 -19 -11 16 -41 10 -41 -10 0 -11 -7 -18 -18 -18 -30 0
-41 19 -31 52 9 33 5 48 -14 49 -20 0 -53 51 -67 102 -10 39 -17 47 -36 47
-13 0 -29 6 -36 14 -9 9 -20 11 -35 5 -25 -9 -33 4 -29 45 2 14 0 26 -4 26 -4
0 -10 9 -13 20 -4 16 -14 20 -46 20 -23 0 -41 5 -41 10 0 12 -6 12 -42 -1z"/>
<path d="M5210 4149 c-14 -6 -35 -22 -47 -37 -19 -24 -24 -25 -42 -14 -11 6
-29 12 -39 12 -9 0 -27 6 -38 14 -29 20 -73 -3 -105 -54 -22 -37 -27 -39 -71
-40 -43 0 -47 -2 -53 -28 -4 -21 -17 -33 -49 -47 -31 -14 -42 -24 -39 -36 6
-21 -26 -40 -71 -43 -17 -2 -41 -6 -53 -10 -14 -5 -23 -3 -23 3 0 17 -17 13
-24 -6 -8 -19 9 -33 41 -33 22 0 40 -31 28 -50 -3 -6 -3 -19 0 -31 5 -15 12
-18 27 -13 11 3 26 7 32 8 6 1 16 5 23 9 6 4 23 3 38 -3 14 -5 44 -10 67 -10
35 0 46 6 89 50 27 28 49 54 49 59 0 5 12 9 28 9 24 -1 131 32 174 54 21 10
88 11 88 1 0 -3 -8 -15 -17 -25 -17 -19 -17 -21 0 -50 21 -37 9 -56 -36 -60
-15 -1 -27 -6 -27 -10 0 -3 -9 -10 -20 -13 -14 -4 -20 -15 -20 -36 l0 -30 33
23 c17 13 34 25 37 28 35 34 64 53 92 60 18 4 40 11 49 15 11 4 26 -3 44 -22
25 -25 26 -25 11 -3 -24 37 -20 65 17 96 48 43 40 69 -29 89 -38 11 -60 13
-68 6 -6 -5 -18 -6 -25 -2 -14 9 -4 36 23 64 13 12 13 17 1 33 -11 15 -16 17
-26 7 -7 -7 -16 -13 -20 -13 -11 0 -19 44 -8 50 10 7 2 40 -10 39 -3 0 -17 -5
-31 -10z"/>
<path d="M2270 4044 c0 -8 7 -22 15 -30 13 -14 16 -14 21 0 6 17 -11 46 -27
46 -5 0 -9 -7 -9 -16z"/>
<path d="M4056 3915 c-19 -8 -33 -24 -42 -51 -28 -80 -14 -103 52 -87 l37 8 3
67 c4 74 -3 82 -50 63z"/>
<path d="M5175 3896 c-16 -7 -46 -16 -66 -20 -20 -3 -54 -15 -75 -25 -21 -10
-43 -17 -49 -15 -10 4 -60 -41 -93 -84 -13 -18 -29 -24 -71 -27 -30 -2 -63 1
-73 6 -13 7 -29 7 -52 -1 -36 -12 -81 -18 -206 -30 -65 -6 -91 -5 -112 6 -23
12 -29 12 -42 -1 -8 -8 -21 -15 -30 -15 -14 0 -36 -54 -36 -91 0 -27 20 -38
52 -28 36 10 112 1 147 -17 24 -12 61 -4 61 14 0 13 54 32 63 23 6 -6 23 -7
38 -4 32 6 33 5 19 -31 -7 -20 -6 -26 3 -26 25 0 67 -25 63 -37 -3 -6 2 -17
10 -23 21 -18 17 -39 -10 -52 -14 -6 -26 -20 -28 -32 -2 -11 -9 -20 -15 -19
-14 3 -26 -42 -18 -67 10 -32 34 -32 53 0 17 27 20 28 34 14 15 -15 17 -13 23
17 4 19 11 39 15 44 4 6 18 27 29 49 17 29 19 41 10 52 -8 10 -3 22 23 53 20
25 39 39 48 36 11 -3 16 2 17 16 1 12 8 29 16 38 8 9 17 24 20 34 4 9 13 17
22 17 8 0 15 5 15 11 0 5 16 17 35 25 19 8 35 19 35 24 0 6 7 10 15 10 17 0
66 28 77 45 4 5 13 10 20 11 48 4 47 2 37 40 -8 26 -7 39 2 50 17 21 8 24 -26
10z"/>
<path d="M3364 3814 c-17 -7 5 -63 39 -98 37 -40 34 -52 -10 -47 -18 2 -26
-19 -9 -25 21 -8 20 -31 0 -42 -13 -7 -7 -13 29 -30 37 -18 65 -47 55 -58 -2
-1 -23 -4 -47 -7 -26 -2 -53 -12 -65 -24 -12 -11 -36 -28 -53 -37 -28 -14 -33
-22 -33 -51 0 -19 4 -35 9 -35 5 0 13 -9 16 -20 7 -21 34 -27 50 -11 14 13 75
1 75 -15 0 -23 17 -24 43 -4 22 17 26 18 37 5 10 -12 16 -13 26 -4 8 6 14 8
14 3 0 -4 5 -3 12 4 7 7 20 12 30 12 10 0 25 11 34 25 12 18 20 22 33 16 9 -4
22 -6 28 -4 7 3 16 -2 19 -11 3 -9 12 -16 20 -16 8 0 14 -7 14 -16 0 -14 2
-15 17 -3 9 8 28 15 42 15 14 1 29 2 33 3 3 1 9 16 13 34 7 32 59 87 82 87 7
0 24 12 38 26 23 22 24 27 10 40 -23 24 -18 51 15 76 17 12 30 26 30 31 0 5
-6 4 -14 -2 -8 -7 -17 -8 -20 -3 -6 10 -67 8 -85 -2 -7 -4 -23 -1 -36 8 -16
11 -31 13 -46 7 -17 -6 -33 -2 -56 11 -18 11 -36 17 -41 14 -4 -2 -14 -1 -22
4 -9 5 -19 5 -27 -2 -15 -12 -43 6 -43 28 0 17 -5 17 -32 3 -19 -10 -58 1 -78
21 -3 3 -16 10 -30 16 -16 7 -25 19 -25 35 0 18 -6 25 -25 27 -14 2 -29 8 -34
13 -11 10 -15 10 -32 3z"/>
<path d="M4064 3758 c-3 -5 -19 -6 -36 -3 -28 6 -29 5 -19 -13 6 -12 11 -32
11 -46 0 -26 15 -36 22 -14 2 6 18 -2 37 -21 29 -28 34 -30 44 -17 15 19 29
10 48 -28 8 -17 23 -31 37 -33 14 -2 21 1 17 7 -3 5 5 21 19 34 14 13 26 30
26 38 0 19 -54 43 -92 40 -15 -1 -28 2 -28 8 0 5 -9 10 -20 10 -13 0 -20 7
-20 19 0 20 -36 35 -46 19z"/>
<path d="M5081 3722 c-49 -17 -148 -107 -156 -143 -7 -30 -29 -54 -43 -45 -5
3 -19 -6 -31 -19 -18 -21 -19 -28 -9 -45 9 -14 16 -16 25 -8 7 6 13 16 13 23
0 16 40 24 69 13 16 -5 27 -3 37 7 20 19 38 19 31 0 -4 -8 -2 -17 3 -20 12 -8
50 35 50 56 0 10 5 21 11 24 6 4 9 26 8 49 -1 22 1 53 5 68 10 33 5 47 -13 40z"/>
<path d="M2457 3695 c-9 -8 -18 -15 -21 -15 -3 0 -35 -18 -71 -40 -36 -22 -69
-40 -73 -40 -4 -1 -27 -19 -51 -41 -40 -36 -44 -43 -35 -67 8 -22 16 -28 47
-30 21 -2 45 2 53 9 18 15 22 11 30 -29 5 -23 3 -32 -7 -33 -8 -1 -18 -2 -24
-4 -5 -1 -17 -3 -26 -3 -19 -2 -20 -31 -1 -50 18 -20 15 -43 -8 -49 -23 -6
-25 -14 -9 -30 18 -18 0 -35 -32 -29 -16 3 -42 9 -59 12 -18 3 -30 1 -30 -5 0
-16 -32 -51 -47 -51 -6 0 -16 -7 -21 -15 -7 -13 -12 -12 -31 9 -25 26 -21 46
9 46 15 0 18 6 15 30 -3 20 1 33 9 36 8 3 12 13 9 22 -3 14 -14 16 -53 14 -40
-3 -49 -1 -53 15 -4 15 -5 15 -6 1 0 -9 -9 -19 -19 -22 -19 -6 -25 -46 -8 -58
5 -3 10 -32 11 -63 1 -51 -2 -59 -24 -73 -15 -9 -28 -17 -30 -19 -3 -2 4 -9
14 -17 18 -13 17 -14 -12 -29 -17 -9 -34 -13 -39 -9 -5 4 -3 0 4 -10 18 -22 5
-65 -21 -72 -21 -5 -21 -6 -2 -19 18 -14 18 -15 -3 -21 -18 -6 -20 -11 -12
-25 5 -10 7 -21 3 -24 -3 -3 7 -5 23 -4 25 2 29 -2 32 -25 2 -16 9 -28 15 -29
46 -3 61 -8 71 -21 8 -11 34 -17 85 -20 41 -2 76 -9 78 -15 2 -5 9 -18 16 -27
12 -16 16 -15 45 15 18 18 32 38 32 43 0 13 42 33 87 42 26 5 33 2 44 -17 9
-17 9 -24 0 -27 -6 -2 -11 -7 -11 -11 0 -12 87 4 105 19 13 11 23 11 57 -1 32
-10 42 -11 46 -1 2 7 12 12 22 12 10 0 22 5 25 10 9 14 41 12 57 -2 14 -14 73
-16 98 -4 10 4 24 -2 40 -19 31 -33 40 -32 40 4 0 17 5 33 10 36 6 3 10 15 10
25 0 10 7 25 15 34 8 8 19 26 25 40 8 23 26 32 53 27 18 -3 47 21 47 38 0 11
7 21 15 25 8 3 15 12 15 21 0 8 6 15 14 15 8 0 16 6 18 12 6 17 -39 51 -57 45
-18 -8 -36 15 -26 32 5 7 6 22 4 32 -4 13 0 19 11 19 9 0 16 -3 16 -7 0 -11
122 -10 138 0 10 7 10 12 1 23 -8 9 -8 18 -1 27 5 6 7 26 5 44 -5 29 -7 31
-29 21 -20 -9 -28 -8 -47 10 -13 12 -29 22 -35 22 -7 0 -12 6 -12 14 0 15 -18
23 -64 32 -17 3 -28 -2 -35 -14 -7 -14 -18 -17 -45 -14 -20 2 -36 9 -36 14 0
6 -16 7 -42 3 -37 -7 -40 -6 -34 11 8 21 9 24 7 41 -1 18 -49 -5 -56 -26 -4
-12 -17 -16 -61 -14 -76 2 -103 10 -126 36 l-19 22 5 -34 c4 -19 13 -42 21
-51 8 -9 12 -19 9 -22 -3 -4 4 -16 15 -27 26 -26 26 -33 3 -61 -16 -20 -21
-21 -43 -9 -13 7 -31 12 -40 11 -18 -3 -29 17 -35 62 -2 16 -6 31 -9 34 -2 3
4 16 15 29 15 19 17 30 10 44 -10 18 4 57 22 60 5 1 13 3 18 4 6 1 15 3 20 4
6 0 9 4 8 9 -1 4 6 22 15 39 10 18 17 35 17 38 1 3 3 12 7 21 3 9 2 28 -3 43
-7 19 -18 27 -45 31 -19 4 -40 9 -46 13 -6 4 -18 0 -26 -8z"/>
<path d="M3995 3590 c-27 -28 -27 -30 -11 -54 22 -34 21 -68 -1 -64 -14 2 -18
-4 -18 -27 0 -16 6 -38 14 -47 11 -14 11 -21 1 -33 -7 -8 -8 -15 -3 -15 5 0
15 11 21 25 8 16 19 25 29 23 12 -2 19 4 21 20 3 18 10 22 37 22 26 0 33 3 29
15 -4 8 -13 15 -21 15 -7 0 -24 11 -36 24 -12 13 -31 25 -42 28 -25 5 -24 51
1 79 28 31 10 22 -21 -11z"/>
<path d="M4570 3568 c0 -7 -20 -22 -44 -34 -41 -20 -67 -17 -87 9 -3 4 -16 7
-30 8 -13 0 -39 1 -56 1 -41 1 -68 -19 -52 -39 9 -11 8 -17 -7 -28 -19 -13
-19 -14 1 -29 23 -18 24 -18 200 -20 72 -1 141 -7 155 -13 14 -6 27 -7 30 -4
3 4 13 10 23 14 18 7 24 27 8 27 -6 0 -16 12 -24 28 -7 15 -19 26 -25 25 -7
-2 -18 -4 -24 -5 -9 -2 -12 8 -10 30 2 27 -1 33 -15 30 -10 -1 -24 1 -30 5 -8
5 -13 3 -13 -5z"/>
<path d="M2491 3474 c-20 -23 -9 -25 18 -3 13 11 17 19 10 19 -8 -1 -20 -8
-28 -16z"/>
<path d="M4881 3455 c-12 -19 -28 -32 -35 -29 -16 6 -54 -68 -65 -128 -8 -48
-8 -48 19 -48 14 0 30 -3 33 -7 4 -3 17 -7 30 -8 12 -1 37 -5 55 -9 27 -7 32
-5 32 12 0 10 19 54 41 97 36 67 39 79 26 87 -9 5 -14 15 -11 23 4 8 3 22 0
31 -5 13 -9 14 -21 4 -8 -6 -18 -9 -23 -6 -31 19 -59 13 -81 -19z"/>
<path d="M2500 3431 c0 -6 -9 -21 -19 -33 -15 -15 -17 -26 -11 -43 5 -13 6
-26 3 -29 -8 -8 18 -37 28 -30 5 2 19 -2 33 -11 21 -14 24 -14 29 0 4 8 -3 23
-14 34 -12 11 -18 25 -14 31 4 6 1 18 -6 26 -7 9 -15 25 -16 37 -4 24 -13 37
-13 18z"/>
<path d="M3910 3432 c0 -4 -10 -12 -22 -17 -14 -6 -27 -25 -34 -50 -6 -22 -17
-39 -23 -37 -6 1 -11 -2 -11 -8 0 -5 -13 -7 -29 -4 -23 5 -30 2 -36 -15 -9
-29 -16 -27 -53 15 -18 20 -32 33 -32 29 0 -4 -7 -2 -16 5 -13 11 -16 10 -21
-8 -3 -14 -16 -24 -32 -28 -14 -3 -35 -9 -46 -14 -40 -17 -54 -19 -60 -10 -9
14 -21 12 -39 -5 -13 -13 -19 -13 -36 -3 -11 7 -20 16 -20 20 0 4 -7 5 -15 2
-8 -4 -15 -1 -15 6 0 7 -8 9 -22 4 -13 -4 -33 -7 -44 -6 -37 3 -38 -46 -3 -90
16 -20 29 -41 29 -46 0 -6 9 -8 21 -5 16 5 20 2 18 -13 -1 -10 1 -27 4 -36 4
-10 9 -25 12 -34 3 -9 14 -18 25 -21 11 -3 20 -10 20 -17 -1 -16 -36 -56 -50
-56 -7 0 -6 -6 4 -15 12 -12 26 -13 78 -6 35 5 67 6 72 4 4 -3 6 -18 2 -33
l-5 -28 59 3 c37 2 60 -1 60 -8 0 -6 3 -7 7 -3 4 4 6 22 5 41 -2 18 1 36 7 39
11 7 61 -13 61 -26 0 -4 8 -8 18 -8 10 0 23 -5 30 -12 9 -9 12 -8 12 6 0 10
-13 31 -30 46 -16 15 -30 35 -30 44 0 9 -8 16 -20 16 -11 0 -20 4 -20 9 0 5
-10 11 -22 13 -17 2 -24 11 -26 31 -4 33 22 59 51 53 10 -2 30 2 45 10 15 8
33 14 41 14 8 0 11 6 7 15 -4 11 3 15 27 16 18 1 35 1 40 0 4 0 7 6 7 14 0 8
7 15 15 15 24 0 65 42 65 66 0 13 5 26 10 29 6 4 8 11 4 16 -3 5 -1 16 5 23 8
10 7 17 -4 26 -8 7 -15 19 -15 26 0 8 -7 14 -15 14 -8 0 -15 -3 -15 -8z"/>
<path d="M1340 3320 c0 -5 6 -11 13 -13 19 -8 -34 -47 -65 -47 -16 0 -28 6
-30 15 -3 13 -10 12 -46 -6 -35 -17 -51 -20 -90 -13 -26 4 -50 7 -53 6 -4 -1
-23 -2 -43 -4 -32 -2 -36 -5 -36 -31 0 -18 -9 -36 -22 -47 -22 -18 -23 -19 -6
-48 10 -16 15 -32 12 -34 -8 -9 67 -52 110 -63 33 -9 46 -8 75 7 19 10 43 18
53 18 9 0 20 5 23 10 3 6 10 10 16 10 35 0 -34 -96 -86 -119 -55 -24 -125 -37
-125 -22 0 6 -4 11 -10 11 -5 0 -10 -4 -10 -8 0 -13 93 -102 106 -102 7 0 21
-16 30 -35 15 -33 90 -105 109 -105 4 0 13 8 20 17 11 15 15 15 29 4 9 -7 13
-17 10 -22 -11 -19 30 -8 101 26 82 40 102 69 97 141 -2 23 1 45 7 49 6 3 11
15 11 26 0 10 5 19 10 19 6 0 10 -3 10 -7 0 -5 17 -9 37 -11 20 -1 39 -4 41
-7 9 -9 -7 -17 -33 -17 -23 0 -25 -4 -23 -38 1 -25 6 -36 14 -33 20 8 26 -15
10 -45 -14 -26 -13 -33 5 -69 21 -44 27 -88 14 -117 -8 -18 -7 -18 18 -2 24
16 26 16 35 -1 14 -23 24 -12 26 29 2 33 27 51 41 29 3 -6 11 -11 16 -11 6 0
7 5 4 10 -3 6 -1 10 4 10 20 0 11 28 -14 48 -29 23 -32 32 -9 32 8 0 23 7 31
16 13 12 14 17 3 24 -7 4 -14 22 -16 39 -3 26 0 32 21 37 24 6 25 9 20 60 -4
40 -2 54 7 54 7 0 21 7 32 15 17 13 17 18 6 45 -7 16 -19 30 -26 30 -8 0 -14
5 -14 11 0 5 -16 17 -35 25 -20 8 -35 21 -35 31 0 9 -3 13 -6 10 -12 -11 -44
40 -37 59 4 11 2 15 -4 11 -17 -10 -45 27 -36 49 5 16 4 17 -8 8 -10 -8 -21
-9 -39 -1 -14 5 -33 9 -42 8 -10 -1 -18 2 -18 7 0 6 -8 13 -17 18 -24 10 -193
13 -193 4z"/>
<path d="M3972 3318 c-7 -7 -12 -17 -12 -22 -1 -18 -57 -86 -64 -78 -4 4 -12
-1 -17 -11 -6 -10 -22 -17 -38 -17 -16 0 -34 -7 -41 -15 -7 -8 -16 -12 -21 -9
-5 3 -20 -7 -35 -22 -20 -22 -29 -26 -42 -18 -22 14 -42 7 -42 -14 0 -16 41
-41 78 -46 10 -2 17 -12 17 -24 0 -11 9 -29 20 -39 27 -24 47 -62 40 -73 -6
-10 30 -51 39 -43 2 3 18 -8 34 -25 26 -27 31 -28 54 -16 22 12 58 54 58 69 0
3 -7 5 -15 5 -8 0 -15 4 -15 9 0 5 -3 16 -6 25 -3 9 -1 16 5 16 6 0 11 -7 11
-15 0 -8 7 -15 15 -15 18 0 37 -34 29 -54 -7 -17 3 -20 23 -8 6 4 24 25 39 47
22 32 28 52 29 103 1 48 -2 62 -13 62 -9 0 -13 7 -9 19 3 12 -3 27 -13 36 -17
15 -17 65 0 65 5 0 8 13 8 29 -1 22 -7 31 -24 35 -12 3 -36 17 -52 31 -22 18
-32 21 -40 13z"/>
<path d="M4616 3274 c-9 -8 -16 -20 -16 -25 0 -6 -4 -8 -9 -5 -18 11 -82 -24
-92 -51 -11 -30 3 -78 27 -87 8 -3 14 -15 14 -27 0 -28 24 -19 28 12 2 13 9
30 15 38 6 7 11 23 12 35 0 13 6 21 18 21 10 0 22 7 27 15 13 21 12 60 -1 60
-6 0 -9 7 -5 15 7 19 1 19 -18 -1z"/>
<path d="M4704 3263 c-8 -13 -19 -21 -23 -18 -10 6 -25 -80 -17 -94 3 -5 8
-30 11 -56 4 -27 10 -56 14 -64 5 -9 11 -37 15 -62 5 -36 12 -49 31 -57 20 -9
25 -9 25 2 0 8 7 17 16 20 11 4 14 12 9 24 -19 49 -10 117 16 117 10 0 15 17
17 70 l3 71 -36 12 c-29 11 -34 17 -29 36 7 31 -31 30 -52 -1z"/>
<path d="M3239 3214 c-9 -11 -23 -14 -45 -11 -18 3 -37 0 -43 -6 -7 -7 -36
-11 -75 -9 -50 3 -64 0 -69 -12 -4 -11 -1 -16 11 -16 9 -1 29 -11 44 -23 20
-16 26 -28 22 -45 -4 -12 -13 -22 -20 -22 -8 0 -14 -6 -14 -14 0 -8 -7 -16
-15 -20 -8 -3 -15 -13 -15 -21 0 -28 -46 -60 -81 -56 -9 1 -21 -12 -29 -34 -8
-19 -17 -35 -20 -35 -6 0 -18 -32 -36 -99 -4 -14 -16 -33 -28 -43 -15 -13 -18
-20 -9 -26 16 -10 30 -122 15 -122 -20 0 -1 -74 24 -97 13 -12 24 -28 24 -36
0 -22 -23 -37 -46 -31 -16 4 -23 -1 -31 -23 -17 -46 -14 -71 10 -77 12 -3 30
-19 40 -36 10 -16 25 -30 33 -30 8 0 14 -6 13 -12 -5 -39 1 -49 29 -46 21 2
28 9 30 30 2 16 16 37 37 53 19 14 34 30 32 34 -1 5 9 17 22 28 21 17 23 25
17 66 -4 26 -11 47 -16 47 -4 0 -6 10 -3 21 4 14 0 27 -11 35 -10 7 -16 21
-14 31 5 22 57 20 75 -3 6 -9 14 -11 17 -5 3 5 2 11 -3 13 -5 1 -12 35 -15 74
-6 67 -5 72 15 77 11 3 23 15 26 27 5 20 11 22 49 17 l42 -4 25 61 c14 33 28
73 31 88 4 18 18 33 40 43 20 10 33 22 30 29 -3 7 6 21 20 30 27 17 36 49 12
40 -10 -4 -18 9 -27 50 -7 35 -17 56 -26 56 -7 0 -16 7 -20 16 -6 17 -47 64
-55 64 -3 0 -12 -7 -19 -16z"/>
<path d="M2045 3210 c3 -5 8 -10 11 -10 2 0 4 5 4 10 0 6 -5 10 -11 10 -5 0
-7 -4 -4 -10z"/>
<path d="M3682 2953 c1 -10 -2 -31 -6 -47 -6 -24 -11 -27 -31 -22 -14 3 -37 9
-51 12 -16 4 -29 2 -33 -5 -6 -9 -15 -8 -35 3 -16 8 -23 17 -17 21 6 3 11 14
11 24 0 19 -8 20 -89 6 -24 -4 -41 -2 -46 4 -5 10 -30 -2 -74 -35 -2 -2 -5
-15 -7 -29 -1 -14 -7 -32 -13 -39 -6 -7 -8 -16 -4 -19 3 -4 1 -7 -6 -7 -7 0
-11 -8 -9 -17 1 -10 -9 -30 -22 -44 -21 -21 -32 -25 -62 -21 -21 2 -38 0 -38
-5 0 -5 -9 -19 -19 -30 -17 -17 -19 -30 -14 -77 5 -46 9 -56 25 -56 26 0 34
-28 14 -48 -15 -15 -18 -15 -26 -2 -5 8 -12 11 -16 7 -4 -4 -14 -1 -23 7 -9 7
-27 17 -41 20 l-25 7 21 -18 c11 -10 19 -24 17 -30 -3 -7 0 -20 5 -30 6 -10
13 -39 17 -64 6 -43 5 -48 -29 -85 -20 -21 -36 -42 -36 -46 0 -4 -9 -9 -19
-13 -11 -3 -21 -18 -23 -35 -3 -17 -3 -30 -1 -30 2 0 22 9 44 19 22 11 47 17
55 14 9 -3 14 2 14 17 0 49 40 81 54 43 6 -14 9 -15 16 -4 4 8 15 11 23 8 11
-4 17 1 19 16 2 12 13 26 26 32 12 5 22 17 22 25 0 8 12 22 28 30 25 14 28 14
45 -2 9 -10 17 -22 17 -27 0 -15 41 -20 61 -8 11 7 17 18 14 26 -3 8 0 11 9 8
8 -3 20 1 27 9 6 8 14 12 17 10 2 -3 30 15 61 39 32 25 85 54 119 66 34 11 60
26 59 32 -1 7 3 11 10 10 21 -5 64 44 68 77 2 17 9 38 15 45 8 10 8 19 0 35
-6 11 -8 26 -4 33 18 31 50 57 71 57 13 0 23 3 23 8 0 15 -35 37 -52 34 -12
-2 -18 3 -18 16 0 11 -8 22 -17 26 -10 3 -25 10 -33 15 -8 5 -22 12 -30 15 -8
3 -25 13 -37 22 -20 15 -22 14 -21 -3z"/>
<path d="M1845 2875 c-5 -2 -22 -6 -37 -9 -20 -5 -25 -10 -21 -26 4 -15 14
-20 40 -20 37 0 43 -22 7 -29 -10 -2 -30 -14 -43 -27 -21 -21 -22 -25 -7 -39
21 -22 20 -41 -4 -67 -16 -17 -22 -19 -34 -9 -13 11 -16 7 -22 -26 -5 -31 -12
-42 -35 -52 -24 -11 -32 -11 -45 0 -14 11 -18 10 -31 -6 -9 -13 -11 -29 -7
-45 8 -29 12 -56 13 -86 1 -12 9 -24 20 -27 14 -3 17 -11 14 -31 -3 -14 -9
-26 -12 -26 -12 0 0 -59 15 -71 15 -13 20 -44 5 -35 -5 4 -1 -22 10 -56 10
-34 21 -82 25 -107 22 -153 45 -215 76 -205 11 3 20 -1 24 -11 6 -14 8 -14 25
1 11 9 19 13 19 8 0 -5 5 -1 11 9 5 9 8 21 4 26 -3 5 -1 12 5 16 6 4 3 16 -10
32 l-20 26 22 22 c13 12 27 18 32 14 9 -8 24 2 54 34 19 20 42 23 42 5 0 -9 3
-9 12 0 7 7 23 12 35 12 21 0 24 4 21 37 -3 35 -1 38 25 38 15 1 27 -3 27 -7
0 -4 14 -8 30 -8 22 0 30 5 30 18 0 21 29 52 48 52 7 0 12 5 12 10 0 6 7 10
15 10 8 0 15 9 15 20 0 11 8 24 18 27 9 4 23 15 31 26 7 10 19 16 26 13 23 -8
60 42 61 84 0 48 19 73 44 60 21 -11 28 8 39 102 1 4 13 0 29 -8 15 -7 34 -14
41 -14 8 0 28 -12 43 -27 15 -15 28 -22 28 -16 0 14 94 10 113 -5 11 -9 15
-29 15 -63 -1 -50 11 -77 31 -65 5 4 8 13 5 20 -11 28 46 109 61 86 9 -15 24
-12 21 4 -2 16 -25 40 -48 48 -17 7 -19 23 -5 45 4 6 3 14 -3 18 -16 10 -12
35 5 35 16 0 16 18 -1 113 -4 25 -3 37 5 37 6 0 11 5 11 10 0 6 -6 10 -14 10
-7 0 -16 10 -19 21 -4 17 -10 20 -24 13 -24 -11 -93 -7 -109 7 -8 6 -22 7 -36
3 -13 -4 -26 -7 -30 -6 -5 1 -8 -2 -8 -7 0 -15 -45 -21 -79 -11 -24 7 -39 5
-54 -5 -21 -13 -52 -18 -90 -16 -23 1 -34 30 -16 41 22 14 4 22 -36 14 -36 -6
-85 -47 -85 -71 0 -7 -7 -13 -15 -13 -8 0 -15 -5 -15 -11 0 -6 -14 -9 -32 -7
-25 2 -33 8 -33 23 0 18 -8 21 -71 25 -49 3 -78 11 -91 23 -11 9 -27 17 -37
17 -29 0 -56 20 -56 40 0 19 -4 22 -25 15z"/>
<path d="M2487 2513 c-4 -3 -7 -17 -7 -30 0 -12 -4 -23 -10 -23 -5 0 -10 -7
-10 -15 0 -9 -9 -15 -24 -15 -26 0 -41 -31 -23 -49 7 -7 6 -16 -6 -29 -9 -10
-17 -22 -17 -27 0 -4 -7 -13 -15 -19 -11 -9 -12 -20 -5 -50 6 -29 5 -44 -6
-62 -14 -20 -13 -23 3 -32 17 -10 17 -11 -2 -32 -16 -18 -19 -33 -17 -76 3
-33 -1 -60 -8 -69 -10 -12 -9 -15 9 -15 22 0 28 -14 11 -25 -10 -6 -2 -36 12
-46 17 -11 77 -2 93 14 10 10 28 15 47 13 18 -2 38 2 46 10 7 8 22 14 32 14
13 0 20 8 22 26 2 22 11 29 48 40 25 8 52 13 60 11 9 -1 14 5 12 14 -3 21 23
43 43 35 8 -3 15 -2 15 3 0 13 35 19 54 9 12 -7 18 -5 22 6 3 9 12 16 19 16
24 0 71 32 82 57 11 22 10 23 -32 23 -39 0 -44 3 -54 30 -5 17 -17 30 -27 30
-10 0 -14 5 -11 14 8 20 -21 56 -44 56 -10 0 -19 5 -19 11 0 5 -4 7 -10 4 -5
-3 -20 1 -32 10 -19 13 -23 25 -23 73 l0 57 -47 0 c-27 0 -48 -3 -48 -8 0 -5
-8 -6 -17 -2 -10 4 -23 8 -30 8 -6 0 -9 6 -7 12 8 19 -63 45 -79 28z"/>
<path d="M3270 2365 c-13 -14 -29 -25 -36 -25 -6 0 -12 -6 -11 -12 1 -37 -4
-48 -24 -48 -11 0 -29 -5 -40 -11 -17 -9 -21 -7 -27 13 -5 20 -7 19 -17 -17
-10 -35 -15 -40 -42 -40 -34 -1 -93 -49 -93 -77 0 -10 -19 -26 -47 -40 -27
-13 -52 -28 -56 -35 -6 -9 -15 -10 -35 -2 -22 8 -25 8 -14 -2 17 -18 15 -49
-3 -49 -8 0 -24 9 -35 20 -22 22 -44 27 -37 8 8 -22 -13 -49 -32 -43 -22 7
-96 -18 -97 -34 -1 -6 -2 -18 -3 -27 -1 -11 -7 -14 -18 -10 -10 4 -23 -1 -35
-13 -14 -15 -26 -19 -49 -14 -22 4 -35 0 -52 -15 -20 -19 -28 -20 -87 -12 -93
14 -93 14 -86 -14 4 -15 1 -26 -7 -29 -9 -3 -9 -9 1 -26 17 -30 15 -62 -6 -67
-19 -5 -45 -52 -36 -65 3 -5 11 -9 19 -9 9 0 11 -7 7 -22 -5 -20 -3 -21 10
-10 10 8 26 10 42 6 24 -6 26 -10 23 -45 -2 -21 -2 -41 1 -43 2 -3 20 4 39 14
30 16 38 17 49 5 8 -7 14 -20 14 -29 0 -8 10 -16 23 -18 16 -2 21 -9 19 -25
-2 -16 2 -23 12 -23 9 0 16 -6 16 -13 0 -23 -25 -67 -37 -67 -14 0 -17 -13 -6
-23 10 -11 33 13 33 34 0 24 42 41 76 33 14 -4 24 -2 24 5 0 6 7 11 16 11 8 0
12 5 9 10 -7 11 3 13 53 10 18 -1 32 3 32 10 0 6 11 22 25 36 15 15 22 30 18
37 -4 7 -9 39 -10 72 -1 33 -5 79 -9 102 -7 48 24 126 56 143 24 13 70 13 70
0 0 -24 19 -7 39 35 21 44 53 64 84 52 7 -2 33 6 57 19 25 13 39 23 32 24 -19
0 -4 50 25 82 14 14 51 40 82 57 31 16 69 46 84 66 15 19 45 44 67 55 36 18
110 97 110 116 0 5 -8 -1 -18 -14 -24 -31 -75 -32 -105 -4 -29 27 -29 27 -57
-3z"/>
<path d="M2306 2273 c-4 -13 -14 -23 -22 -23 -8 0 -14 -6 -14 -12 -1 -19 -45
-66 -66 -70 -12 -2 -20 -13 -22 -31 -3 -23 -8 -27 -37 -27 -19 0 -44 4 -57 9
-22 8 -23 7 -20 -30 4 -37 3 -39 -25 -39 -16 0 -34 -5 -41 -12 -8 -8 -15 -8
-26 2 -13 10 -17 9 -22 -4 -3 -9 -12 -16 -19 -16 -7 0 -16 -7 -19 -16 -3 -8
-14 -14 -23 -13 -32 3 -34 -1 -17 -30 17 -29 17 -31 -4 -73 -15 -31 -20 -56
-18 -88 3 -28 -1 -53 -10 -67 -8 -13 -10 -23 -4 -23 5 0 10 -7 10 -15 0 -8 5
-15 10 -15 6 0 10 -9 10 -20 0 -11 7 -37 16 -58 9 -20 24 -73 33 -116 16 -78
17 -80 57 -100 24 -12 47 -33 55 -50 8 -16 23 -34 34 -40 11 -6 23 -16 27 -23
5 -6 17 -9 28 -6 11 3 20 1 20 -5 0 -5 19 -19 42 -31 37 -18 44 -19 58 -6 9 8
31 15 49 15 17 0 37 5 44 10 7 6 21 17 32 25 20 14 20 14 -2 15 -25 0 -39 15
-23 25 5 3 10 19 10 36 0 19 5 29 15 29 8 0 15 7 15 16 0 14 7 16 39 11 30 -4
44 0 60 14 25 24 27 37 5 46 -9 3 -14 13 -11 24 3 12 -2 19 -19 23 -13 4 -24
13 -24 20 0 21 -23 26 -45 10 -23 -17 -52 -18 -57 -2 -4 10 -10 10 -31 1 -14
-7 -28 -9 -30 -5 -8 14 -20 67 -18 79 1 7 -5 26 -13 41 -8 16 -12 32 -9 36 3
3 6 21 5 39 -1 32 1 34 25 29 24 -4 25 -3 18 19 -22 67 4 137 47 123 15 -4 18
0 18 25 0 20 -5 31 -14 31 -22 0 -30 20 -13 33 18 14 31 87 15 87 -6 0 -7 10
-3 28 4 15 7 39 6 53 0 14 5 33 12 43 16 22 10 66 -8 66 -7 0 -15 6 -18 13 -2
7 -7 2 -11 -10z"/>
<path d="M1770 1849 c0 -8 4 -19 9 -24 5 -6 14 -27 20 -47 21 -65 51 -25 34
45 -3 10 -10 16 -16 14 -7 -2 -20 2 -29 11 -15 13 -18 13 -18 1z"/>
<path d="M2287 1616 c-6 -16 19 -30 28 -16 7 11 -2 30 -15 30 -4 0 -10 -6 -13
-14z"/>
<path d="M2725 1474 c-13 -16 -27 -23 -40 -20 -12 3 -35 -4 -53 -14 -21 -13
-43 -18 -62 -15 -27 5 -31 1 -45 -31 -14 -34 -17 -36 -48 -30 -17 4 -33 11
-35 16 -2 6 -12 10 -21 10 -41 0 -75 -84 -39 -93 17 -5 17 -8 6 -26 -7 -12
-18 -21 -24 -21 -7 0 -15 -7 -18 -16 -4 -10 -14 -14 -26 -11 -11 3 -22 1 -25
-3 -3 -4 -14 -6 -25 -3 -13 3 -20 0 -20 -9 0 -10 -11 -12 -41 -10 l-42 4 19
-26 c11 -14 25 -26 32 -26 6 0 13 -6 14 -12 0 -7 2 -18 2 -24 1 -6 7 -18 15
-27 8 -10 10 -27 6 -46 -9 -40 0 -54 26 -38 16 10 21 9 29 -3 9 -14 5 -84 -6
-101 -3 -5 1 -6 9 -3 19 7 29 -22 17 -46 -24 -47 -26 -57 -19 -95 4 -23 3 -45
-3 -52 -13 -16 7 -43 31 -43 9 0 34 10 55 23 31 18 40 29 43 56 4 46 32 73 88
90 38 11 45 17 39 33 -4 12 4 34 20 58 14 22 26 46 26 54 0 25 28 39 65 32 35
-7 35 -6 35 28 0 19 -8 42 -17 52 -16 15 -16 17 0 29 11 8 15 20 11 36 -3 13
-6 35 -8 49 -1 14 -8 35 -14 46 -12 24 -7 35 13 28 34 -13 102 179 74 212 -15
19 -20 17 -44 -12z"/>
<path d="M4751 1454 c0 -11 3 -14 6 -6 3 7 2 16 -1 19 -3 4 -6 -2 -5 -13z"/>
<path d="M4728 1366 c-3 -24 0 -32 9 -29 14 6 18 63 4 63 -5 0 -11 -15 -13
-34z"/>
<path d="M1975 1321 c13 -27 29 -52 34 -56 21 -12 69 -94 89 -151 33 -94 47
-127 62 -154 28 -48 39 -89 24 -92 -16 -4 24 -89 66 -138 24 -28 32 -32 39
-21 6 10 6 22 0 33 -7 12 -6 18 1 18 7 0 8 6 1 18 -6 11 -6 23 -2 28 16 16 24
74 11 74 -8 0 -10 16 -7 54 l6 54 -32 -2 c-31 -1 -32 0 -32 44 0 26 -5 48 -13
53 -7 5 -10 17 -7 28 5 15 1 19 -20 19 -22 0 -25 3 -20 20 5 16 2 20 -14 20
-14 0 -21 6 -21 20 0 12 7 20 18 20 12 0 8 6 -13 20 -16 11 -36 20 -43 20 -15
0 -33 14 -70 54 -75 81 -93 86 -57 17z"/>
<path d="M4682 1060 c0 -14 2 -19 5 -12 2 6 2 18 0 25 -3 6 -5 1 -5 -13z"/>
<path d="M4880 498 c0 -7 5 -20 10 -28 8 -12 10 -11 10 7 0 12 -4 25 -10 28
-5 3 -10 0 -10 -7z"/>
</g>
</svg>
